<?xml version="1.0" standalone="no"?><!DOCTYPE svg PUBLIC "-//W3C//DTD SVG 1.1//EN" "http://www.w3.org/Graphics/SVG/1.1/DTD/svg11.dtd"><svg t="1608211502158" class="icon" viewBox="0 0 1024 1024" version="1.1" xmlns="http://www.w3.org/2000/svg" p-id="4940" xmlns:xlink="http://www.w3.org/1999/xlink" width="16" height="16"><defs><style type="text/css"></style></defs><path d="M241.371429 175.542857l-43.885715-65.828571L146.285714 146.285714c-43.885714 29.257143-73.142857 73.142857-73.142857 124.342857v475.428572c0 58.514286 29.257143 102.4 73.142857 131.657143l58.514286 36.571428 36.571429-65.828571-21.942858-14.628572c-43.885714-29.257143-73.142857-73.142857-73.142857-124.342857V314.514286c0-51.2 29.257143-95.085714 73.142857-124.342857l21.942858-14.628572z m585.142857-65.828571l-36.571429 65.828571 14.628572 14.628572c43.885714 29.257143 73.142857 73.142857 73.142857 124.342857v394.971428c0 51.2-29.257143 95.085714-73.142857 124.342857l-21.942858 14.628572 36.571429 65.828571 58.514286-36.571428c43.885714-29.257143 73.142857-73.142857 73.142857-124.342857V270.628571c0-51.2-29.257143-95.085714-73.142857-124.342857l-51.2-36.571428zM446.171429 453.485714c7.314286-14.628571 7.314286-29.257143 7.314285-51.2C453.485714 329.142857 424.228571 292.571429 365.714286 292.571429H277.942857v365.714285h51.2V504.685714H365.714286L409.6 658.285714h58.514286l-58.514286-168.228571c21.942857-7.314286 29.257143-21.942857 36.571429-36.571429z m-43.885715-29.257143c0 7.314286 0 14.628571-7.314285 14.628572 0 7.314286-7.314286 7.314286-14.628572 14.628571h-51.2V343.771429h29.257143c14.628571 0 29.257143 7.314286 36.571429 14.628571 7.314286 7.314286 7.314286 7.314286 7.314285 14.628571v51.2zM577.828571 731.428571H731.428571v-51.2H629.028571V570.514286h87.771429v-43.885715H629.028571V416.914286H731.428571V365.714286H577.828571v365.714285z" p-id="4941" fill="#e6e6e6"></path></svg>