<?xml version="1.0" standalone="no"?><!DOCTYPE svg PUBLIC "-//W3C//DTD SVG 1.1//EN" "http://www.w3.org/Graphics/SVG/1.1/DTD/svg11.dtd"><svg t="1631617067160" class="icon" viewBox="0 0 1024 1024" version="1.1" xmlns="http://www.w3.org/2000/svg" p-id="3923" width="16" height="16" xmlns:xlink="http://www.w3.org/1999/xlink"><defs><style type="text/css"></style></defs><path d="M833.3 515.33l159.09-159.1c43-43 43-111.8 0-150.49L824.7 38.04c-38.7-38.7-111.8-38.7-150.5 0L515.11 197.13 356.02 38.04c-38.7-38.7-111.79-38.7-150.49 0l-167.7 167.7c-43 43-43 111.8 0 150.49l159.09 159.1-68.8 64.5c-12.9 12.9-21.5 25.8-25.8 43L7.73 885.11c-12.9 34.4-4.3 68.8 12.9 94.6 21.5 25.8 51.59 43 86 43 12.9 0 21.5 0 34.4-4.3l262.29-94.6c17.2-4.3 30.1-12.9 43-25.8l64.5-64.5L669.91 992.6c21.5 21.5 47.3 30.1 77.4 30.1 30.1 0 55.9-12.9 77.4-30.1L992.4 824.9c43-43 43-111.79 0-150.49L833.3 515.33zM761.61 89.64c4.3 0 12.9 4.3 17.2 4.3l167.69 167.7c8.6 8.6 8.6 21.5 0 30.09l-60.2 60.2-197.79-197.79 60.2-60.2c-0.01 0 4.29-4.3 12.9-4.3zM211.23 399.23l77.39-77.4c12.9-12.9 12.9-34.4 0-47.3-12.9-12.9-34.4-12.9-47.3 0l-77.39 77.4-55.9-55.9c-8.6-8.6-8.6-21.5 0-30.1l167.7-167.69c4.3-4.3 8.6-4.3 17.2-4.3s12.9 4.3 17.2 4.3l154.8 159.09-197.8 197.79-55.9-55.89z m189.19 442.88s-4.3 4.3-8.6 4.3l-262.29 94.6c-8.6 4.3-17.2 0-21.5-8.6-4.3-4.3-4.3-8.6-4.3-17.2l94.6-262.29c0-4.3 4.3-4.3 4.3-8.6l438.58-438.58L839 403.53l-86 86-257.99 257.98-94.59 94.6z m541.78-77.39L774.5 932.41c-8.6 8.6-21.5 8.6-30.1 0l-55.9-55.89 77.4-77.4c12.9-12.9 12.9-34.4 0-47.3-12.9-12.9-34.4-12.9-47.3 0l-77.4 77.4-55.89-55.9 197.79-197.8 159.1 159.1c8.6 8.6 8.6 21.49 0 30.1z m0 0" fill="#1296db" p-id="3924"></path></svg>